<mxfile host="app.diagrams.net" modified="2023-09-01T07:30:11.536Z" agent="Mozilla/5.0 (Windows NT 10.0; Win64; x64) AppleWebKit/537.36 (KHTML, like Gecko) Chrome/116.0.0.0 Safari/537.36" version="21.7.1" etag="MU3Pi63l_quQsGLcyb5C" type="github">
  <diagram name="페이지-1" id="NwNEg67l7EkVxvBeCTKZ">
    <mxGraphModel>
      <root>
        <mxCell id="0" />
        <mxCell id="1" parent="0" />
      </root>
    </mxGraphModel>
  </diagram>
</mxfile>
